<svg id="Group_1201" data-name="Group 1201" xmlns="http://www.w3.org/2000/svg" viewBox="0 0 33.009 38.572">
  <defs>
    <style>
      .cls-1 {
        fill: #fff;
      }
    </style>
  </defs>
  <g id="Group_1170" data-name="Group 1170" transform="translate(14.995 10.577)">
    <path id="Path_501" data-name="Path 501" class="cls-1" d="M234.409,159.406H224.7a.7.7,0,0,1,0-1.406h9.707a.7.7,0,1,1,0,1.406Z" transform="translate(-224 -158)"/>
  </g>
  <g id="Group_1171" data-name="Group 1171" transform="translate(18.409 6.627)">
    <path id="Path_502" data-name="Path 502" class="cls-1" d="M282,100.406H275.7a.7.7,0,0,1,0-1.406H282a.7.7,0,0,1,0,1.406Z" transform="translate(-275 -99)"/>
  </g>
  <g id="Group_1172" data-name="Group 1172">
    <path id="Path_503" data-name="Path 503" class="cls-1" d="M32.306,38.572a3.116,3.116,0,0,1-2.376-.884,2.729,2.729,0,0,1-.71-1.908V1.406H5.228c-.187.007-3.742.12-3.822,3.34V7.431H5.724V3.213a.7.7,0,1,1,1.406,0v4.92a.7.7,0,0,1-.7.7H.7a.7.7,0,0,1-.7-.7V4.719A4.391,4.391,0,0,1,2.7.589,6.8,6.8,0,0,1,5.215,0H29.923a.7.7,0,0,1,.7.7V35.834a1.353,1.353,0,0,0,.341.9,1.8,1.8,0,0,0,1.339.428.706.706,0,0,1,0,1.412Z"/>
  </g>
  <g id="Group_1173" data-name="Group 1173" transform="translate(0.027 10.175)">
    <path id="Path_504" data-name="Path 504" class="cls-1" d="M25.443,178.442H1.2a.7.7,0,0,1-.7-.7c0-.161-.067-16.407-.1-25.036a.7.7,0,0,1,.7-.7h0a.7.7,0,0,1,.7.7c.027,7.6.08,21.113.094,24.333H25.443a.7.7,0,0,1,0,1.406Z" transform="translate(-0.4 -152)"/>
  </g>
  <g id="Group_1174" data-name="Group 1174" transform="translate(4.552 24.969)">
    <path id="Path_505" data-name="Path 505" class="cls-1" d="M88.518,374.406H68.7a.7.7,0,1,1,0-1.406H88.518a.7.7,0,1,1,0,1.406Z" transform="translate(-68 -373)"/>
  </g>
  <g id="Group_1175" data-name="Group 1175" transform="translate(14.593 20.953)">
    <path id="Path_506" data-name="Path 506" class="cls-1" d="M228.476,314.406H218.7a.7.7,0,0,1,0-1.406h9.773a.7.7,0,1,1,0,1.406Z" transform="translate(-218 -313)"/>
  </g>
  <g id="Group_1176" data-name="Group 1176" transform="translate(14.593 17.003)">
    <path id="Path_507" data-name="Path 507" class="cls-1" d="M225,255.406H218.7a.7.7,0,0,1,0-1.406H225a.7.7,0,1,1,0,1.406Z" transform="translate(-218 -254)"/>
  </g>
  <g id="Group_1177" data-name="Group 1177" transform="translate(4.552 28.718)">
    <path id="Path_508" data-name="Path 508" class="cls-1" d="M74.928,430.406H68.7a.7.7,0,1,1,0-1.406h6.226a.7.7,0,1,1,0,1.406Z" transform="translate(-68 -429)"/>
  </g>
  <g id="Group_1178" data-name="Group 1178" transform="translate(4.519 15.135)">
    <path id="Path_509" data-name="Path 509" class="cls-1" d="M74.73,234.033H68.2a.7.7,0,0,1-.7-.7V226.8a.7.7,0,0,1,.7-.7H74.73a.7.7,0,0,1,.7.7v6.527A.7.7,0,0,1,74.73,234.033Zm-5.824-1.406h5.121v-5.121H68.906Z" transform="translate(-67.5 -226.1)"/>
  </g>
</svg>
