<svg xmlns="http://www.w3.org/2000/svg" viewBox="0 0 28.105 27.082">
  <defs>
    <style>
      .cls-1 {
        fill: #fff;
      }
    </style>
  </defs>
  <g id="Group_1332" data-name="Group 1332" transform="translate(0)">
    <g id="Group_1166" data-name="Group 1166" transform="translate(5.246 4.211)">
      <g id="Group_1162" data-name="Group 1162">
        <path id="Path_496" data-name="Path 496" class="cls-1" d="M60.63,62.37a11.435,11.435,0,1,1,11.43-11.44A11.444,11.444,0,0,1,60.63,62.37Zm0-20.631A9.191,9.191,0,1,0,69.82,50.93,9.2,9.2,0,0,0,60.63,41.739Z" transform="translate(-49.2 -39.5)"/>
      </g>
      <g id="Group_1163" data-name="Group 1163" transform="translate(7.591 4.947)">
        <path id="Path_497" data-name="Path 497" class="cls-1" d="M124.324,98.78a3.775,3.775,0,0,1-3.764-3.785,1.12,1.12,0,1,1,2.239,0,1.53,1.53,0,1,0,1.567-1.535,1.222,1.222,0,0,1-.16-.011h-.1a3.775,3.775,0,1,1,3.838-3.774,1.12,1.12,0,0,1-2.239,0,1.535,1.535,0,1,0-1.557,1.535h.267a3.786,3.786,0,0,1-.1,7.57Z" transform="translate(-120.4 -85.9)"/>
      </g>
      <g id="Group_1164" data-name="Group 1164" transform="translate(10.236 3.476)">
        <path id="Path_498" data-name="Path 498" class="cls-1" d="M146.32,75.608a1.119,1.119,0,0,1-1.12-1.119V73.22a1.12,1.12,0,1,1,2.239,0v1.269A1.119,1.119,0,0,1,146.32,75.608Z" transform="translate(-145.2 -72.1)"/>
      </g>
      <g id="Group_1165" data-name="Group 1165" transform="translate(10.236 16.185)">
        <path id="Path_499" data-name="Path 499" class="cls-1" d="M146.32,194.808a1.119,1.119,0,0,1-1.12-1.12V192.42a1.12,1.12,0,1,1,2.239,0v1.269A1.119,1.119,0,0,1,146.32,194.808Z" transform="translate(-145.2 -191.3)"/>
      </g>
    </g>
    <g id="Group_1168" data-name="Group 1168">
      <g id="Group_1167" data-name="Group 1167">
        <path id="Path_500" data-name="Path 500" class="cls-1" d="M5.875,17.848a1.041,1.041,0,0,1-.469-.107A9.3,9.3,0,1,1,17.3,4.574a1.121,1.121,0,1,1-1.93,1.141,7.058,7.058,0,1,0-9.031,10A1.106,1.106,0,0,1,6.888,17.2,1.092,1.092,0,0,1,5.875,17.848Z"/>
      </g>
    </g>
  </g>
</svg>
