<svg xmlns="http://www.w3.org/2000/svg" viewBox="0 0 41.158 35.385">
  <defs>
    <style>
      .cls-1 {
        fill: #fff;
      }
    </style>
  </defs>
  <g id="Group_1356" data-name="Group 1356" transform="translate(0 0)">
    <g id="Group_554" data-name="Group 554" transform="translate(5.952 11.835)">
      <path id="Path_209" data-name="Path 209" class="cls-1" d="M97.015,179.444a.8.8,0,0,1-.8-.8l.008-13.232H89.864v13.225a.8.8,0,0,1-.8.8l-9.869.008h0a.774.774,0,0,1-.562-.235.787.787,0,0,1-.235-.562V158.665a.8.8,0,0,1,1.594,0v19.184l8.275-.008V164.625a.8.8,0,0,1,.8-.8h7.956a.774.774,0,0,1,.562.235.787.787,0,0,1,.235.562l-.008,13.225,8.594-.015V158.642c0-.273-.121-1.116-1.5-1.162a.794.794,0,0,1,.053-1.587A2.836,2.836,0,0,1,108,158.68v19.951a.8.8,0,0,1-.8.8l-10.188.015Z" transform="translate(-78.4 -155.894)"/>
    </g>
    <g id="Group_555" data-name="Group 555" transform="translate(0 0.026)">
      <path id="Path_210" data-name="Path 210" class="cls-1" d="M40.368,15.776a.773.773,0,0,1-.456-.144L20.758,2.1,5.226,12.853a8.8,8.8,0,0,1-1.685.972c-1.921.812-2.915.129-3.34-.357a.8.8,0,1,1,1.2-1.048c.5.569,2.118-.266,2.87-.843.008-.008.023-.015.03-.023L20.31.479a.787.787,0,0,1,.911.008l19.6,13.847a.794.794,0,0,1-.456,1.442Z" transform="translate(-0.003 -0.337)"/>
    </g>
    <g id="Group_556" data-name="Group 556" transform="translate(27.733 0)">
      <path id="Path_211" data-name="Path 211" class="cls-1" d="M372.019,11.3a.8.8,0,0,1-.8-.8V1.594l-4.327.015v.919a.8.8,0,0,1-1.594,0V.82a.8.8,0,0,1,.8-.8L372.019,0a.774.774,0,0,1,.562.235.82.82,0,0,1,.235.562v9.71A.8.8,0,0,1,372.019,11.3Z" transform="translate(-365.3 0)"/>
    </g>
  </g>
</svg>
