<svg xmlns="http://www.w3.org/2000/svg" viewBox="0 0 36.974 36.5">
  <defs>
    <style>
      .cls-1 {
        fill: #fff;
      }
    </style>
  </defs>
  <g id="Group_1202" data-name="Group 1202" transform="translate(-0.018)">
    <g id="Group_1180" data-name="Group 1180" transform="translate(0.622)">
      <path id="Path_510" data-name="Path 510" class="cls-1" d="M16.852,15.092a7.544,7.544,0,0,1-7.429-8.86l.2-1.138a.678.678,0,0,1,1.145-.371L14.712,8.5l1.477-.2L17.4,7.025l.137-1.483L13.528,1.7a.679.679,0,0,1-.189-.664.666.666,0,0,1,.481-.488l1.06-.286a7.778,7.778,0,0,1,2-.267,7.551,7.551,0,0,1,7.292,9.4l4.157,3.981a.681.681,0,0,1-.943.982L22.935,10.1a.688.688,0,0,1-.182-.7,6.173,6.173,0,0,0-5.861-8.034,6.482,6.482,0,0,0-1.535.189l3.37,3.227a.689.689,0,0,1,.208.559L18.745,7.39a.65.65,0,0,1-.189.41L17.015,9.413a.667.667,0,0,1-.4.2l-2.036.28a.692.692,0,0,1-.566-.182L10.751,6.6a6.185,6.185,0,0,0,6.1,7.136,6.013,6.013,0,0,0,2.114-.377.4.4,0,0,1,.072-.02,3.672,3.672,0,0,0,1.418-.651.681.681,0,0,1,.963.963,4.95,4.95,0,0,1-2.03,1A7.436,7.436,0,0,1,16.852,15.092Z" transform="translate(-9.307)"/>
    </g>
    <g id="Group_1181" data-name="Group 1181" transform="translate(31.462 29.832)">
      <path id="Path_511" data-name="Path 511" class="cls-1" d="M484.939,461.683a1.542,1.542,0,1,1,1.073-2.654,1.549,1.549,0,0,1,.052,2.186h0A1.6,1.6,0,0,1,484.939,461.683Zm.624-.95Zm-.624-.774a.193.193,0,0,0-.13.052.169.169,0,0,0-.052.13.183.183,0,0,0,.052.124.178.178,0,0,0,.124.052.173.173,0,0,0,.13-.059.183.183,0,0,0-.007-.254A.173.173,0,0,0,484.939,459.96Z" transform="translate(-483.397 -458.6)"/>
    </g>
    <g id="Group_1182" data-name="Group 1182" transform="translate(3.869 22.867)">
      <path id="Path_512" data-name="Path 512" class="cls-1" d="M59.9,358.483a.671.671,0,0,1-.462-.182.68.68,0,0,1-.039-.963l5.172-5.6a.681.681,0,1,1,1,.924l-5.172,5.6A.662.662,0,0,1,59.9,358.483Z" transform="translate(-59.218 -351.518)"/>
    </g>
    <g id="Group_1183" data-name="Group 1183" transform="translate(5.307 24.304)">
      <path id="Path_513" data-name="Path 513" class="cls-1" d="M82,380.583a.671.671,0,0,1-.462-.182.68.68,0,0,1-.039-.963l5.172-5.6a.681.681,0,0,1,1,.924l-5.172,5.6A.672.672,0,0,1,82,380.583Z" transform="translate(-81.318 -373.618)"/>
    </g>
    <g id="Group_1184" data-name="Group 1184" transform="translate(6.744 25.742)">
      <path id="Path_514" data-name="Path 514" class="cls-1" d="M104.1,402.683a.671.671,0,0,1-.462-.182.68.68,0,0,1-.039-.963l5.172-5.6a.681.681,0,1,1,1,.924l-5.172,5.6A.672.672,0,0,1,104.1,402.683Z" transform="translate(-103.418 -395.718)"/>
    </g>
    <g id="Group_1185" data-name="Group 1185" transform="translate(0.018 0.407)">
      <path id="Path_515" data-name="Path 515" class="cls-1" d="M5.755,42.347a5.676,5.676,0,0,1-3.838-1.5L1.858,40.8l-.007-.007a5.674,5.674,0,0,1-.332-8.021l6.375-6.928a.674.674,0,0,1,.579-.215l.312.033a1.616,1.616,0,0,0,.247.013.683.683,0,1,1,0,1.366q-.176,0-.371-.02L2.521,33.695a4.315,4.315,0,0,0,.254,6.089l.059.052.007.007a4.3,4.3,0,0,0,6.082-.254l6.141-6.674a2.661,2.661,0,0,1,.423-2.127L9.5,25.277A.7.7,0,0,1,9.28,24.8a.672.672,0,0,1,.182-.488l2.674-2.908a.682.682,0,0,1,.481-.221.692.692,0,0,1,.494.189l4.43,4.235,1.2-1.19,7.65-8.294a.888.888,0,0,1,.15-.124l3.077-1.847,3.057-5.2L31.43,7.811l-4.924,3.48L25,14.349a.655.655,0,0,1-.111.163L17.4,22.643a.681.681,0,1,1-1-.924l7.429-8.06,1.535-3.129a.641.641,0,0,1,.221-.254L31.1,6.38a.687.687,0,0,1,.859.052l2.056,1.886a.682.682,0,0,1,.124.846l-3.422,5.822a.71.71,0,0,1-.241.241l-.02.013-3.122,1.873L19.74,25.362l-.02.02-1.685,1.672a.683.683,0,0,1-.956.007l-4.41-4.215-1.737,1.893,6.011,5.529a.686.686,0,0,1,.221.553.679.679,0,0,1-.293.514,1.212,1.212,0,0,0-.455,1.353l.059.306a.677.677,0,0,1-.169.592l-.033.033-6.349,6.9A5.674,5.674,0,0,1,5.755,42.347Z" transform="translate(-0.018 -6.253)"/>
    </g>
    <g id="Group_1186" data-name="Group 1186" transform="translate(17.606 17.581)">
      <path id="Path_516" data-name="Path 516" class="cls-1" d="M286.033,287.969a3.676,3.676,0,0,1-2.543-1.021l-10.3-9.855a1.121,1.121,0,0,0-.9-.208,1.193,1.193,0,0,0-.585.6.684.684,0,0,1-1.275-.494,2.51,2.51,0,0,1,1.431-1.405,2.441,2.441,0,0,1,2.108.384,1.256,1.256,0,0,1,.111.085l10.356,9.907a2.285,2.285,0,0,0,1.6.638,2.389,2.389,0,0,0,1.73-.748,2.333,2.333,0,0,0-.072-3.292l-11.625-11.117a.681.681,0,1,1,.943-.982l11.618,11.111a3.65,3.65,0,0,1,1.138,2.589,3.689,3.689,0,0,1-1.021,2.635A3.731,3.731,0,0,1,286.033,287.969Z" transform="translate(-270.387 -270.273)"/>
    </g>
  </g>
</svg>
