<svg xmlns="http://www.w3.org/2000/svg" viewBox="0 0 46.735 35.231">
  <defs>
    <style>
      .cls-1 {
        fill: #fff;
      }
    </style>
  </defs>
  <g id="Group_868" data-name="Group 868" transform="translate(0 -0.031)">
    <g id="Group_859" data-name="Group 859" transform="translate(37.919 29.564)">
      <path id="Path_361" data-name="Path 361" class="cls-1" d="M48.233,390.3a2.852,2.852,0,1,0-2.733-2.849A2.792,2.792,0,0,0,48.233,390.3Zm0-4.316a1.468,1.468,0,1,1-1.407,1.467A1.442,1.442,0,0,1,48.233,385.982Z" transform="translate(-45.5 -384.6)"/>
    </g>
    <g id="Group_860" data-name="Group 860" transform="translate(16.036 29.564)">
      <path id="Path_362" data-name="Path 362" class="cls-1" d="M345.333,390.3a2.852,2.852,0,1,0-2.733-2.849A2.792,2.792,0,0,0,345.333,390.3Zm0-4.316a1.468,1.468,0,1,1-1.407,1.467A1.442,1.442,0,0,1,345.333,385.982Z" transform="translate(-342.6 -384.6)"/>
    </g>
    <g id="Group_861" data-name="Group 861" transform="translate(4.111 0.031)">
      <path id="Path_363" data-name="Path 363" class="cls-1" d="M34.794,30.178H59.932a.692.692,0,0,0,0-1.382H34.816c-.729-.046-2.3-.361-2.571-1.083-.177-.476.236-1.3,1.127-2.25,1.282-1.375,2.2-2.365,2.755-2.957.228-.246.368-.4.449-.484a.838.838,0,0,0,.088-.1.718.718,0,0,0,0-.983l-.022-.023L28.784,2.763a.464.464,0,0,0-.029-.061,6.1,6.1,0,0,0-1.392-1.59A4.664,4.664,0,0,0,23.223.175a4.823,4.823,0,0,0-3.491,3.149,4.362,4.362,0,0,0,0,3.364.65.65,0,0,0,.928.154.714.714,0,0,0,.155-.96,3.623,3.623,0,0,1,.25-2.3,3.4,3.4,0,0,1,2.467-2.058A3.825,3.825,0,0,1,27.6,3.369l7.763,17.962c-.383.415-1.208,1.3-2.939,3.164-1.333,1.428-1.8,2.68-1.407,3.725.656,1.743,3.432,1.943,3.749,1.958ZM20.807,5.88Z" transform="translate(-19.4 -0.031)"/>
    </g>
    <g id="Group_862" data-name="Group 862" transform="translate(16.202 2.27)">
      <path id="Path_364" data-name="Path 364" class="cls-1" d="M4.658,49.073H4.7l23.216-1.7a.677.677,0,0,0,.611-.584l2-13.155a.87.87,0,0,0,.007-.138c-.037-.868-.53-2.511-2.143-2.511-1.09,0-17.235-1.175-25.617-1.8a3.026,3.026,0,0,0-2.445.829A1.789,1.789,0,0,0,.1,31.68,9.633,9.633,0,0,0,1.278,34.49a3.5,3.5,0,0,0,3,1.551c.523,0,1.812-.015,3.587-.031,4.832-.046,12.926-.115,16.72-.054.611.008.825.023.891.031l.133.023c.037,0,.155.008.243.369a4.167,4.167,0,0,1-.523,2.841.655.655,0,0,0-.737.438.7.7,0,0,0,.39.891,1.136,1.136,0,0,0,1.289-.361,5.234,5.234,0,0,0,.766-4.485A1.533,1.533,0,0,0,25.7,34.628l-.147-.023c-.184-.015-.508-.031-.95-.038-3.808-.069-11.91.008-16.749.054-1.709.015-3.057.031-3.572.031-1.782,0-2.35-1.467-2.909-3.379-.059-.192-.059-.323,0-.4.184-.246.9-.338,1.318-.315.987.077,24.291,1.8,25.706,1.8.67,0,.788.883.81,1.129l-1.9,12.541L4.622,47.691a.67.67,0,0,0-.611.737A.656.656,0,0,0,4.658,49.073ZM25.333,35.942a.441.441,0,0,0,.088.038A.441.441,0,0,1,25.333,35.942Zm-.361-.561a.687.687,0,0,0,.118.338A.758.758,0,0,1,24.973,35.381Z" transform="translate(0 -29.182)"/>
    </g>
    <g id="Group_866" data-name="Group 866" transform="translate(7.898 11.395)">
      <g id="Group_863" data-name="Group 863" transform="translate(3.319 0.995)">
        <path id="Path_365" data-name="Path 365" class="cls-1" d="M431.633,165.616a.65.65,0,0,0,.523-.269l2.445-3.264a.7.7,0,0,0-.118-.968.635.635,0,0,0-.928.123L431.11,164.5a.7.7,0,0,0,.118.968A.673.673,0,0,0,431.633,165.616Z" transform="translate(-430.968 -160.968)"/>
      </g>
      <g id="Group_864" data-name="Group 864" transform="translate(0)">
        <path id="Path_366" data-name="Path 366" class="cls-1" d="M504.691,152.431a.4.4,0,0,0,.1-.008.689.689,0,0,0,.56-.783l-.42-3.041a.669.669,0,0,0-.751-.584.689.689,0,0,0-.56.783l.42,3.041A.674.674,0,0,0,504.691,152.431Z" transform="translate(-503.609 -148.009)"/>
      </g>
      <g id="Group_865" data-name="Group 865" transform="translate(5.399 6.213)">
        <path id="Path_367" data-name="Path 367" class="cls-1" d="M395.371,230.751a.4.4,0,0,0,.1-.008l3.042-.461a.689.689,0,0,0,.56-.783.669.669,0,0,0-.751-.584l-3.042.461a.689.689,0,0,0-.56.783A.674.674,0,0,0,395.371,230.751Z" transform="translate(-394.709 -228.909)"/>
      </g>
    </g>
    <g id="Group_867" data-name="Group 867" transform="translate(0 17.829)">
      <path id="Path_368" data-name="Path 368" class="cls-1" d="M483.734,243.247h0a.657.657,0,0,0,.471-.207l2.931-3.11a.712.712,0,0,0-.007-.975.643.643,0,0,0-.935.008l-2.46,2.611-.567-.6,2.416-2.711a.726.726,0,0,0,.177-.5.7.7,0,0,0-.214-.484l-1.024-.975,6.7-2.688-1.834,7.318-.832-.852a.643.643,0,0,0-.935.008.712.712,0,0,0,.007.975l1.65,1.689a.664.664,0,0,0,.641.177.682.682,0,0,0,.464-.492l2.453-9.776a.707.707,0,0,0-.2-.691.634.634,0,0,0-.678-.131l-8.9,3.579a.691.691,0,0,0-.412.515.708.708,0,0,0,.206.637l1.318,1.259-2.394,2.68a.715.715,0,0,0,.015.96l1.488,1.574A.65.65,0,0,0,483.734,243.247Z" transform="translate(-481.589 -231.796)"/>
    </g>
  </g>
</svg>
